<?xml version="1.0" encoding="utf-8"?>
<!-- Generator: Adobe Illustrator 17.0.0, SVG Export Plug-In . SVG Version: 6.00 Build 0)  -->
<!DOCTYPE svg PUBLIC "-//W3C//DTD SVG 1.1//EN" "http://www.w3.org/Graphics/SVG/1.1/DTD/svg11.dtd">
<svg version="1.1" id="Capa_1" xmlns="http://www.w3.org/2000/svg" xmlns:xlink="http://www.w3.org/1999/xlink" x="0px" y="0px"
	 width="300px" height="181px" viewBox="0 0 300 181" enable-background="new 0 0 300 181" xml:space="preserve">
<g>
	<path fill="#FFFFFF" d="M16.378,91.035v65.376c0,6.178,5.074,11.252,11.252,11.252h131.822c6.178,0,11.252-5.074,11.252-11.252
		V91.035c0-6.18-5.074-11.252-11.252-11.252H27.631C21.452,79.783,16.378,84.857,16.378,91.035L16.378,91.035z M25.655,110.863
		h6.003v25.721h-6.003V110.863L25.655,110.863z M39.224,89.428h105.76v68.588H39.224V89.428L39.224,89.428z M157.844,118.097
		c3.104,0,5.626,2.519,5.626,5.626s-2.522,5.626-5.626,5.626c-3.105,0-5.624-2.519-5.624-5.626S154.739,118.097,157.844,118.097z"/>
	<path fill="#FFFFFF" d="M206.993,13.337c-6.178,0-11.252,5.074-11.252,11.252v131.822c0,6.178,5.072,11.252,11.252,11.252h65.376
		c6.178,0,11.252-5.074,11.252-11.252V24.589c0-6.178-5.074-11.252-11.252-11.252H206.993L206.993,13.337z M226.821,22.613h25.721
		v6.003h-25.721V22.613L226.821,22.613z M205.387,36.182h68.588v105.76h-68.588V36.182L205.387,36.182z M239.681,149.178
		c3.107,0,5.626,2.519,5.626,5.624c0,3.104-2.519,5.626-5.626,5.626c-3.107,0-5.626-2.522-5.626-5.626
		C234.055,151.697,236.574,149.178,239.681,149.178z"/>
	<g>
		<g>
			<path fill="#FFFFFF" d="M134.91,58.736l4.954,1.38c-0.842,3.1-1.331,6.24-1.331,9.458h-5.144
				C133.42,65.785,133.905,62.385,134.91,58.736L134.91,58.736z"/>
		</g>
		<g>
			<path fill="#FFFFFF" d="M171.585,30.463l0.134,5.141c-3.33,0.081-6.221,0.616-9.393,1.543l-1.576-4.894
				C164.182,31.125,168.02,30.582,171.585,30.463L171.585,30.463z"/>
		</g>
		<g>
			<path fill="#FFFFFF" d="M155.646,34.267l2.224,4.638c-2.86,1.408-5.508,3.135-7.902,5.244l-3.467-3.798
				c2.819-2.495,5.341-4.498,8.721-6.149L155.646,34.267L155.646,34.267z"/>
		</g>
		<g>
			<path fill="#FFFFFF" d="M142.667,44.279l3.93,3.315c-2.075,2.454-3.73,5.146-5.089,8.054l-4.698-2.09
				C138.449,50.02,140.183,47.283,142.667,44.279z"/>
		</g>
		<g>
			<polygon fill="#FFFFFF" points="186.452,32.836 173.363,46.766 170.004,43.61 180.128,32.836 170.004,22.063 173.363,18.907 			
				"/>
		</g>
	</g>
</g>
</svg>
