<?xml version="1.0" encoding="utf-8"?>
<!-- Generator: Adobe Illustrator 17.0.0, SVG Export Plug-In . SVG Version: 6.00 Build 0)  -->
<!DOCTYPE svg PUBLIC "-//W3C//DTD SVG 1.1//EN" "http://www.w3.org/Graphics/SVG/1.1/DTD/svg11.dtd">
<svg version="1.1" id="Capa_1" xmlns="http://www.w3.org/2000/svg" xmlns:xlink="http://www.w3.org/1999/xlink" x="0px" y="0px"
	 width="300px" height="181px" viewBox="0 0 300 181" enable-background="new 0 0 300 181" xml:space="preserve">
<g>
	<path fill="#FFFFFF" d="M286.232,91.035c0-6.178-5.074-11.252-11.252-11.252H143.157c-6.178,0-11.252,5.072-11.252,11.252v65.376
		c0,6.178,5.074,11.252,11.252,11.252H274.98c6.178,0,11.252-5.074,11.252-11.252V91.035L286.232,91.035z M276.955,110.863v25.721
		h-6.003v-25.721H276.955L276.955,110.863z M263.386,89.428v68.588h-105.76V89.428H263.386L263.386,89.428z M150.39,123.723
		c0,3.107-2.519,5.626-5.624,5.626c-3.104,0-5.626-2.519-5.626-5.626s2.522-5.626,5.626-5.626
		C147.871,118.097,150.39,120.616,150.39,123.723z"/>
	<path fill="#FFFFFF" d="M25.02,13.337c-6.178,0-11.252,5.074-11.252,11.252v131.822c0,6.178,5.072,11.252,11.252,11.252h65.376
		c6.178,0,11.252-5.074,11.252-11.252V24.589c0-6.178-5.074-11.252-11.252-11.252H25.02L25.02,13.337z M44.848,22.613h25.721v6.003
		H44.848V22.613L44.848,22.613z M23.414,36.182h68.588v105.76H23.414V36.182L23.414,36.182z M57.708,149.178
		c3.107,0,5.626,2.519,5.626,5.624c0,3.104-2.519,5.626-5.626,5.626s-5.626-2.522-5.626-5.626
		C52.082,151.697,54.601,149.178,57.708,149.178z"/>
	<g>
		<g>
			<path fill="#FFFFFF" d="M121.357,20.439l-1.38,4.954c-3.1-0.842-6.24-1.331-9.459-1.331v-5.144
				C114.308,18.949,117.708,19.435,121.357,20.439L121.357,20.439z"/>
		</g>
		<g>
			<path fill="#FFFFFF" d="M149.63,57.114l-5.141,0.134c-0.081-3.33-0.616-6.221-1.543-9.393l4.894-1.576
				C148.968,49.712,149.512,53.549,149.63,57.114L149.63,57.114z"/>
		</g>
		<g>
			<path fill="#FFFFFF" d="M145.827,41.176l-4.638,2.224c-1.408-2.86-3.135-5.508-5.244-7.902l3.798-3.467
				c2.495,2.819,4.498,5.341,6.149,8.721L145.827,41.176L145.827,41.176z"/>
		</g>
		<g>
			<path fill="#FFFFFF" d="M135.814,28.197l-3.315,3.93c-2.454-2.075-5.146-3.73-8.054-5.089l2.09-4.698
				C130.073,23.979,132.81,25.712,135.814,28.197z"/>
		</g>
		<g>
			<polygon fill="#FFFFFF" points="147.257,71.982 133.327,58.892 136.484,55.534 147.257,65.658 158.03,55.534 161.187,58.892 			
				"/>
		</g>
	</g>
</g>
</svg>
