<?xml version="1.0" standalone="no"?>
<!DOCTYPE svg PUBLIC "-//W3C//DTD SVG 1.1//EN" "http://www.w3.org/Graphics/SVG/1.1/DTD/svg11.dtd" >
<svg xmlns="http://www.w3.org/2000/svg">
<metadata>
<json>
<![CDATA[
{
	"fontFamily": "WeatherIcons",
	"majorVersion": 1,
	"minorVersion": 0,
	"description": "Icons for weather project\nFont generated by IcoMoon.",
	"designer": "Leyla Vieira",
	"designerURL": "http://www.leylajacqueline.com",
	"version": "Version 1.0",
	"fontId": "WeatherIcons",
	"psName": "WeatherIcons",
	"subFamily": "Regular",
	"fullName": "WeatherIcons"
}
]]>
</json>
</metadata>
<defs>
<font id="WeatherIcons" horiz-adv-x="1024">
<font-face units-per-em="1024" ascent="960" descent="-64" />
<missing-glyph horiz-adv-x="1024" />
<glyph unicode="&#x20;" horiz-adv-x="512" d="" />
<glyph unicode="&#xe900;" glyph-name="icon-01" data-tags="icon-01" d="M864 432.64h-96.389c-8.489 0-15.36 6.871-15.36 15.36s6.871 15.36 15.36 15.36h96.389c8.489 0 15.36-6.871 15.36-15.36s-6.881-15.36-15.36-15.36zM256.389 432.64h-96.389c-8.489 0-15.36 6.871-15.36 15.36s6.871 15.36 15.36 15.36h96.389c8.489 0 15.36-6.871 15.36-15.36s-6.871-15.36-15.36-15.36zM760.904 183.736c-3.932 0-7.864 1.495-10.865 4.495l-68.157 68.157c-6.001 5.99-6.001 15.718 0 21.719s15.718 6.001 21.719 0l68.157-68.157c6.001-5.99 6.001-15.718 0-21.719-2.99-2.99-6.922-4.495-10.854-4.495zM331.254 613.376c-3.932 0-7.864 1.505-10.865 4.495l-68.157 68.157c-6.001 5.99-6.001 15.729 0 21.719 6.001 6.001 15.718 6.001 21.719 0l68.157-68.157c6.001-5.99 6.001-15.729 0-21.719-2.99-2.99-6.922-4.495-10.854-4.495zM512 80.64c-8.489 0-15.36 6.871-15.36 15.36v96.389c0 8.489 6.871 15.36 15.36 15.36s15.36-6.871 15.36-15.36v-96.389c0-8.489-6.881-15.36-15.36-15.36zM512 688.251c-8.489 0-15.36 6.871-15.36 15.36v96.389c0 8.489 6.871 15.36 15.36 15.36s15.36-6.871 15.36-15.36v-96.389c0-8.489-6.881-15.36-15.36-15.36zM263.096 183.736c-3.932 0-7.864 1.495-10.854 4.495-6.001 6.001-6.001 15.729 0 21.719l68.157 68.157c6.001 6.001 15.718 6.001 21.719 0s6.001-15.729 0-21.719l-68.157-68.157c-3-2.99-6.932-4.495-10.865-4.495zM692.746 613.376c-3.932 0-7.854 1.505-10.854 4.495-6.001 5.99-6.001 15.729 0 21.719l68.157 68.157c6.001 6.001 15.718 6.001 21.719 0s6.001-15.729 0-21.719l-68.157-68.157c-3.011-2.99-6.943-4.495-10.865-4.495zM511.99 229.13c-120.689 0-218.88 98.191-218.88 218.88 0 120.678 98.191 218.86 218.88 218.86 120.699 0 218.89-98.181 218.89-218.86 0.010-120.699-98.191-218.88-218.89-218.88zM511.99 636.15c-103.752 0-188.16-84.398-188.16-188.14 0-103.752 84.408-188.16 188.16-188.16 103.762 0 188.17 84.408 188.17 188.16 0.010 103.741-84.408 188.14-188.17 188.14z" />
<glyph unicode="&#xe901;" glyph-name="icon-02" data-tags="icon-02" d="M516.086 228.751c-122.952 0-222.976 100.004-222.976 222.925 0 100.495 67.666 188.918 164.567 215.040 4.905 1.321 10.168 0.133 14.019-3.195 3.85-3.318 5.816-8.325 5.243-13.384-0.922-8.069-1.393-16.148-1.393-24.003 0-120.084 97.72-217.774 217.836-217.774 6.83 0 13.578 0.348 20.613 1.044 5.079 0.502 10.066-1.536 13.332-5.448s4.372-9.196 2.97-14.090c-27.29-94.853-115.384-161.116-214.211-161.116zM444.867 630.149c-72.233-28.692-121.027-99.226-121.027-178.473 0-105.984 86.241-192.205 192.256-192.205 77.814 0 147.896 47.626 177.388 118.18-0.031 0-0.061 0-0.092 0-137.052 0-248.556 111.473-248.556 248.494-0.010 1.321 0 2.662 0.031 4.004z" />
<glyph unicode="&#xe902;" glyph-name="icon-03" data-tags="icon-03" d="M864.676 600.392h-67.492c-8.489 0-15.36-6.871-15.36-15.36s6.871-15.36 15.36-15.36h67.492c8.489 0 15.36 6.871 15.36 15.36s-6.871 15.36-15.36 15.36zM755.62 469.33c-6.001 6.001-15.718 6.001-21.719 0-6.001-5.99-6.001-15.729 0-21.719l47.729-47.729c3-3 6.932-4.495 10.865-4.495s7.864 1.495 10.865 4.495c6.001 5.99 6.001 15.729 0 21.719l-47.739 47.729zM480.778 700.733c3-3 6.932-4.495 10.865-4.495s7.864 1.495 10.865 4.495c6.001 6.001 6.001 15.729 0 21.719l-47.729 47.729c-6.001 6.001-15.718 6.001-21.719 0-6.001-5.99-6.001-15.729 0-21.719l47.718-47.729zM618.199 748.657c8.489 0 15.36 6.871 15.36 15.36v67.492c0 8.489-6.871 15.36-15.36 15.36s-15.36-6.871-15.36-15.36v-67.492c0-8.489 6.871-15.36 15.36-15.36zM744.755 696.238c3.932 0 7.864 1.495 10.865 4.495l47.729 47.729c6.001 5.99 6.001 15.729 0 21.719-6.001 6.001-15.718 6.001-21.719 0l-47.729-47.729c-6.001-5.99-6.001-15.729 0-21.719 3-3 6.932-4.495 10.854-4.495zM776.079 585.042c0 87.040-70.82 157.86-157.88 157.86-79.247 0-144.855-58.747-156.017-134.943-21.617 10.383-45.251 15.831-69.56 15.831-86.415 0-157.215-68.157-161.464-153.539-50.565-12.227-87.194-57.723-87.194-110.93 0-62.792 51.231-113.869 114.217-113.869h359.834c0.563 0 1.126 0.031 1.69 0.092 61.891 6.84 108.564 59.156 108.564 121.682 0 30.566-11.244 59.064-31.191 81.224 48.64 27.894 79.002 79.309 79.002 136.591zM618.199 712.172c70.113 0 127.16-57.027 127.16-127.14 0-49.828-28.549-94.157-73.38-115.077-5.059 3.246-10.342 6.103-15.811 8.561-5.98 42.291-41.789 74.076-85.596 74.076-13.558 0-26.583-3.072-38.42-8.991-10.496 17.92-24.412 33.72-41.001 46.51 2.683 67.779 58.634 122.061 127.048 122.061zM617.134 276.163h-358.953c-46.039 0-83.497 37.304-83.497 83.149 0 42.301 31.672 77.926 73.656 82.862 7.926 0.932 13.814 7.772 13.558 15.749l-0.133 2.54c-0.041 0.553-0.092 1.096-0.092 1.659 0 72.202 58.737 130.949 130.949 130.949 26.706 0 52.439-8.069 74.414-23.337 0.010 0 0.010-0.010 0.020-0.020 19.784-13.742 35.379-32.532 45.107-54.313 1.935-4.342 5.775-7.537 10.404-8.663 4.639-1.137 9.503-0.041 13.22 2.929 10.004 7.997 22.036 12.227 34.785 12.227 30.505 0 54.989-23.921 55.736-54.456 0.154-6.369 4.229-11.981 10.24-14.111 8.755-3.092 16.978-7.496 24.443-13.107 23.235-17.439 36.557-44.042 36.557-73.001 0.010-46.572-34.509-85.565-80.415-91.054z" />
<glyph unicode="&#xe903;" glyph-name="icon-04" data-tags="icon-04" d="M821.555 555.51c-3.256 3.912-8.233 5.939-13.322 5.448-4.69-0.471-9.165-0.696-13.66-0.696-79.718 0-144.568 64.829-144.568 144.527 0 5.192 0.307 10.547 0.922 15.933 0.573 5.059-1.393 10.066-5.243 13.384-3.86 3.318-9.114 4.506-14.019 3.185-61.010-16.445-105.544-67.83-114.627-129.055-21.606 10.363-45.22 15.811-69.499 15.811-86.415 0-157.215-68.157-161.475-153.539-50.555-12.227-87.194-57.723-87.194-110.93 0-62.792 51.231-113.869 114.207-113.869h359.834c0.563 0 1.126 0.031 1.69 0.092 61.891 6.84 108.564 59.156 108.564 121.682 0 30.689-11.336 59.29-31.437 81.48 34.98 20.316 61.563 53.473 72.776 92.477 1.423 4.895 0.317 10.168-2.949 14.070zM672.041 276.419h-358.953c-46.039 0-83.487 37.294-83.487 83.149 0 42.301 31.662 77.926 73.656 82.862 7.926 0.932 13.814 7.772 13.558 15.749l-0.133 2.54c-0.041 0.553-0.092 1.096-0.092 1.659 0 72.202 58.747 130.949 130.949 130.949 26.706 0 52.439-8.079 74.424-23.347 19.784-13.742 35.389-32.522 45.117-54.323 1.935-4.342 5.775-7.537 10.404-8.663 4.618-1.137 9.503-0.041 13.22 2.929 10.004 7.997 22.036 12.227 34.785 12.227 30.505 0 54.989-23.921 55.736-54.456 0.154-6.38 4.229-11.991 10.24-14.111 8.714-3.072 16.916-7.465 24.392-13.066v0c23.265-17.449 36.608-44.063 36.608-73.032 0-46.572-34.519-85.576-80.425-91.064zM726.804 470.282c-5.038 3.226-10.291 6.062-15.729 8.509-5.98 42.291-41.789 74.076-85.596 74.076-13.558 0-26.583-3.072-38.42-8.991-10.496 17.92-24.412 33.72-40.991 46.51 1.966 47.79 30.74 90.081 73.277 109.844 2.365-92.068 76.124-166.717 167.854-170.527-12.646-25.825-34.048-47.022-60.396-59.423z" />
<glyph unicode="&#xe904;" glyph-name="icon-05" data-tags="icon-05" d="M693.893 245.443h-359.834c-62.976 0-114.217 51.077-114.217 113.869 0 53.217 36.628 98.703 87.194 110.93 4.25 85.381 75.049 153.539 161.464 153.539 57.733 0 110.756-30.945 139.52-80.159 11.837 5.919 24.863 8.991 38.42 8.991 43.807 0 79.606-31.795 85.596-74.076 43.51-19.558 72.1-63.099 72.1-111.319 0-62.515-46.674-114.831-108.575-121.682-0.532-0.061-1.106-0.092-1.669-0.092zM468.511 593.070c-72.202 0-130.949-58.737-130.949-130.949 0-0.563 0.051-1.116 0.092-1.669l0.133-2.54c0.256-7.977-5.632-14.817-13.558-15.749-41.994-4.936-73.656-40.55-73.656-82.862 0-45.855 37.458-83.149 83.497-83.149h358.953c45.906 5.489 80.425 44.493 80.425 91.054 0 38.615-24.515 73.216-61 86.108-6.011 2.13-10.086 7.741-10.24 14.111-0.748 30.536-25.231 54.456-55.736 54.456-12.759 0-24.781-4.229-34.785-12.227-3.707-2.98-8.612-4.076-13.22-2.929-4.628 1.116-8.468 4.321-10.404 8.663-21.084 47.186-68.004 77.681-119.552 77.681z" />
<glyph unicode="&#xe905;" glyph-name="icon-06" data-tags="icon-06" d="M830.802 513.997c0 40.131-29.645 73.329-68.219 78.909-11.131 36.465-45.036 62.986-85.135 62.986-28.191 0-53.32-13.107-69.622-33.567-8.899 4.813-19.098 7.547-29.932 7.547-21.565 0-40.489-10.926-51.845-27.453-24.689 14.787-53.289 23.101-83.18 23.101-86.764 0-157.85-68.444-162.089-154.184-50.78-12.257-87.572-57.928-87.572-111.36 0-63.017 51.425-114.289 114.637-114.289h361.37c0.563 0 1.126 0.031 1.69 0.092 62.126 6.871 108.984 59.382 108.984 122.132 0 24.279-7.229 47.37-19.937 66.847 39.844 4.434 70.851 38.195 70.851 79.237zM307.835 276.419c-46.275 0-83.917 37.489-83.917 83.569 0 42.516 31.826 78.316 74.035 83.282 7.926 0.932 13.814 7.772 13.558 15.739l-0.133 2.55c-0.041 0.563-0.092 1.116-0.092 1.69 0 72.55 59.023 131.574 131.574 131.574 21.402 0 41.984-5.304 60.293-14.787 25.999-13.466 47.391-35.441 59.812-63.252 1.935-4.342 5.775-7.537 10.404-8.663 4.618-1.147 9.503-0.041 13.22 2.929 10.056 8.049 22.149 12.298 34.98 12.298 30.679 0 55.286-24.054 56.044-54.753 0.154-6.369 4.229-11.981 10.24-14.111 12.462-4.403 23.388-11.479 32.573-20.224 17.848-16.988 28.744-40.704 28.744-66.314 0-46.797-34.693-85.996-80.835-91.505h-360.499z" />
<glyph unicode="&#xe906;" glyph-name="icon-07" data-tags="icon-07" d="M830.802 513.987c0 40.131-29.645 73.329-68.219 78.909-11.131 36.465-45.036 62.986-85.135 62.986-28.191 0-53.32-13.107-69.622-33.567-8.899 4.813-19.098 7.547-29.932 7.547-21.565 0-40.489-10.926-51.845-27.453-24.689 14.787-53.289 23.112-83.18 23.112-86.764 0-157.85-68.454-162.089-154.184-50.78-12.257-87.572-57.928-87.572-111.36 0-63.017 51.425-114.289 114.637-114.289h361.37c0.563 0 1.126 0.031 1.69 0.092 62.126 6.881 108.984 59.382 108.984 122.143 0 24.279-7.229 47.37-19.937 66.836 39.844 4.434 70.851 38.195 70.851 79.227zM668.334 276.419h-360.499c-46.275 0-83.917 37.489-83.917 83.569 0 42.516 31.826 78.316 74.035 83.272 7.926 0.932 13.814 7.772 13.558 15.749l-0.133 2.55c-0.041 0.553-0.092 1.106-0.092 1.679 0 72.55 59.023 131.574 131.574 131.574 21.412 0 41.984-5.304 60.303-14.787 25.989-13.466 47.391-35.441 59.812-63.252 1.935-4.352 5.775-7.547 10.404-8.673 4.618-1.137 9.513-0.051 13.22 2.939 10.056 8.038 22.149 12.288 34.98 12.288 30.679 0 55.286-24.054 56.044-54.764 0.154-6.369 4.229-11.981 10.24-14.1 12.462-4.403 23.388-11.479 32.573-20.224 17.848-16.988 28.744-40.694 28.744-66.314-0.020-46.797-34.714-85.996-80.845-91.505zM309.238 151.644c0-22.651 17.859-41.073 39.803-41.073s39.793 18.422 39.793 41.073c0 15.462-21.955 47.79-39.793 69.929-17.848-22.139-39.803-54.467-39.803-69.929zM448.225 151.644c0-22.651 17.859-41.073 39.803-41.073s39.793 18.422 39.793 41.073c0 15.462-21.955 47.79-39.793 69.929-17.848-22.139-39.803-54.467-39.803-69.929zM587.223 151.644c0-22.651 17.859-41.073 39.803-41.073s39.793 18.422 39.793 41.073c0 15.462-21.955 47.79-39.793 69.929-17.848-22.139-39.803-54.467-39.803-69.929z" />
<glyph unicode="&#xe907;" glyph-name="icon-08" data-tags="icon-08" d="M864.676 600.392h-67.492c-8.489 0-15.36-6.881-15.36-15.36s6.871-15.36 15.36-15.36h67.492c8.489 0 15.36 6.881 15.36 15.36s-6.881 15.36-15.36 15.36zM755.62 469.33c-6.001 6.001-15.729 6.001-21.719 0-6.001-6.001-6.001-15.718 0-21.719l47.729-47.718c3-3 6.932-4.495 10.865-4.495s7.864 1.495 10.865 4.495c6.001 6.001 6.001 15.718 0 21.719l-47.739 47.718zM480.778 700.733c3-3 6.932-4.506 10.854-4.506s7.864 1.505 10.865 4.506c6.001 6.001 6.001 15.718 0 21.719l-47.729 47.729c-6.001 6.001-15.718 6.001-21.719 0s-6.001-15.718 0-21.719l47.729-47.729zM618.199 748.657c8.489 0 15.36 6.881 15.36 15.36v67.492c0 8.479-6.871 15.36-15.36 15.36s-15.36-6.881-15.36-15.36v-67.492c0-8.479 6.871-15.36 15.36-15.36zM744.755 696.228c3.932 0 7.864 1.505 10.865 4.506l47.729 47.729c6.001 6.001 6.001 15.718 0 21.719s-15.729 6.001-21.719 0l-47.729-47.729c-6.001-6.001-6.001-15.718 0-21.719 3-3 6.932-4.506 10.854-4.506zM776.079 585.042c0 87.040-70.82 157.86-157.88 157.86-79.258 0-144.876-58.767-156.017-134.973-21.34 10.209-45.015 15.852-69.55 15.852-86.415 0-157.215-68.157-161.464-153.539-50.565-12.227-87.194-57.723-87.194-110.93 0-62.792 51.231-113.869 114.217-113.869h359.834c0.563 0 1.126 0.031 1.69 0.092 61.901 6.84 108.575 59.146 108.575 121.682 0 30.648-11.592 59.382-31.181 81.295 47.114 27.331 78.971 78.234 78.971 136.53zM697.559 367.206c0-46.572-34.519-85.565-80.425-91.054h-358.953c-46.039 0-83.497 37.304-83.497 83.149 0 42.301 31.672 77.916 73.656 82.852 7.926 0.942 13.814 7.782 13.558 15.749l-0.133 2.529c-0.041 0.563-0.092 1.106-0.092 1.679 0 59.72 40.223 110.121 94.976 125.798 11.448 3.277 23.48 5.14 35.973 5.14 21.412 0 41.994-5.325 60.283-14.858 2.714-1.413 5.386-2.929 7.987-4.526 5.939-3.645 11.612-7.721 16.916-12.278 9.062-7.782 17.070-16.845 23.798-26.962 3.348-7.68 7.434-14.95 12.165-21.76 0.123-0.184 0.276-0.358 0.399-0.532 2.109-2.652 5.028-4.588 8.387-5.417 4.628-1.126 9.503-0.051 13.22 2.929 10.015 7.997 22.036 12.227 34.785 12.227 30.505 0 54.989-23.921 55.736-54.456 0.082-3.338 1.29-6.431 3.236-8.96 1.772-2.294 4.137-4.127 6.994-5.13 5.14-1.823 9.974-4.168 14.612-6.799 5.755-3.267 10.967-7.219 15.811-11.561 18.944-16.998 30.607-41.349 30.607-67.758zM656.169 478.525c-5.98 42.291-41.789 74.076-85.596 74.076-13.558 0-26.573-3.072-38.42-8.991-10.629 18.186-24.586 33.853-40.847 46.408 2.652 67.789 58.47 122.153 126.894 122.153 70.113 0 127.16-57.027 127.16-127.14 0-50.883-30.116-94.761-73.4-115.067-5.018 3.215-10.281 6.083-15.79 8.561zM257.331 151.644c0-22.651 17.859-41.073 39.803-41.073s39.793 18.422 39.793 41.073c0 15.462-21.955 47.79-39.793 69.929-17.848-22.139-39.803-54.467-39.803-69.929zM396.319 151.644c0-22.651 17.859-41.073 39.803-41.073s39.793 18.422 39.793 41.073c0 15.462-21.955 47.79-39.793 69.929-17.848-22.139-39.803-54.467-39.803-69.929zM535.316 151.644c0-22.651 17.859-41.073 39.803-41.073s39.793 18.422 39.793 41.073c0 15.462-21.955 47.79-39.793 69.929-17.848-22.139-39.803-54.467-39.803-69.929z" />
<glyph unicode="&#xe908;" glyph-name="icon-09" data-tags="icon-09" d="M821.565 555.295c-3.256 3.912-8.233 6.031-13.322 5.437-4.7-0.461-9.175-0.686-13.67-0.686-79.718 0-144.568 64.84-144.568 144.527 0 5.181 0.307 10.537 0.922 15.933 0.573 5.048-1.393 10.056-5.243 13.384-3.86 3.308-9.124 4.526-14.019 3.185-61.010-16.445-105.554-67.85-114.637-129.075-21.33 10.199-44.974 15.831-69.489 15.831-86.415 0-157.225-68.157-161.475-153.539-50.565-12.227-87.194-57.723-87.194-110.93 0-62.792 51.231-113.869 114.207-113.869h359.834c0.563 0 1.126 0.031 1.69 0.092 61.901 6.84 108.575 59.146 108.575 121.682 0 30.71-11.633 59.494-31.304 81.428 34.427 19.999 61.164 52.634 72.643 92.529 1.423 4.884 0.307 10.148-2.949 14.070zM752.466 367.247c0-46.572-34.509-85.565-80.425-91.054h-358.953c-46.039 0-83.487 37.304-83.487 83.149 0 42.301 31.662 77.916 73.656 82.852 7.926 0.942 13.814 7.782 13.558 15.749l-0.133 2.529c-0.041 0.563-0.092 1.106-0.092 1.679 0 72.202 58.747 130.939 130.949 130.939 24.586 0 48.087-7.004 68.26-19.374 5.939-3.635 11.602-7.711 16.896-12.257 8.991-7.711 16.937-16.691 23.634-26.706 4.055-6.083 7.7-12.503 10.742-19.313 1.935-4.342 5.775-7.537 10.404-8.673 4.639-1.126 9.503-0.051 13.22 2.929 10.015 7.997 22.036 12.227 34.785 12.227 30.505 0 54.999-23.921 55.736-54.446 0.082-3.338 1.28-6.431 3.226-8.96 1.772-2.294 4.147-4.137 7.004-5.151 5.161-1.823 10.004-4.188 14.653-6.83 5.693-3.236 10.865-7.148 15.677-11.448 18.995-16.998 30.689-41.39 30.689-67.84zM711.076 478.566c-5.99 42.291-41.789 74.076-85.596 74.076-13.558 0-26.573-3.072-38.42-8.991-10.639 18.207-24.617 33.894-40.919 46.459 1.956 47.8 30.659 90.132 73.196 109.885 2.365-92.078 76.145-166.728 167.895-170.527-12.81-26.296-34.406-47.155-60.436-59.423-4.977 3.205-10.23 6.052-15.718 8.52zM312.238 151.685c0-22.651 17.859-41.073 39.803-41.073s39.793 18.422 39.793 41.073c0 15.462-21.955 47.79-39.793 69.929-17.848-22.149-39.803-54.467-39.803-69.929zM451.236 151.685c0-22.651 17.859-41.073 39.803-41.073s39.793 18.422 39.793 41.073c0 15.462-21.955 47.79-39.793 69.929-17.848-22.149-39.803-54.467-39.803-69.929zM590.223 151.685c0-22.651 17.859-41.073 39.803-41.073s39.793 18.422 39.793 41.073c0 15.462-21.955 47.79-39.793 69.929-17.848-22.149-39.803-54.467-39.803-69.929z" />
<glyph unicode="&#xe909;" glyph-name="icon-10" data-tags="icon-10" d="M830.802 513.495c0 40.131-29.645 73.329-68.219 78.909-11.131 36.465-45.036 62.986-85.135 62.986-28.191 0-53.32-13.107-69.622-33.567-8.899 4.813-19.098 7.547-29.932 7.547-21.565 0-40.499-10.926-51.845-27.453-24.689 14.787-53.289 23.112-83.18 23.112-86.764 0-157.85-68.454-162.089-154.184-50.77-12.257-87.572-57.928-87.572-111.36 0-63.017 51.425-114.289 114.637-114.289h361.37c0.563 0 1.126 0.031 1.69 0.092 62.126 6.881 108.984 59.382 108.984 122.143 0 24.279-7.229 47.37-19.937 66.836 39.844 4.434 70.851 38.195 70.851 79.227zM307.845 275.927c-46.275 0-83.917 37.489-83.917 83.569 0 42.516 31.826 78.316 74.035 83.272 7.926 0.932 13.814 7.772 13.558 15.749l-0.133 2.55c-0.041 0.553-0.092 1.106-0.092 1.679 0 72.55 59.023 131.574 131.574 131.574 21.412 0 41.984-5.304 60.303-14.787 25.989-13.466 47.391-35.441 59.812-63.252 1.935-4.352 5.775-7.547 10.404-8.673 4.618-1.116 9.513-0.051 13.22 2.939 10.056 8.038 22.149 12.288 34.98 12.288 30.679 0 55.286-24.054 56.044-54.764 0.154-6.369 4.229-11.981 10.24-14.1 12.462-4.403 23.388-11.479 32.573-20.224 17.848-16.988 28.744-40.694 28.744-66.314 0-46.797-34.693-85.996-80.835-91.505h-360.509zM527.698 176.599h-25.672l25.108 41.851c0.952 1.577 0.973 3.553 0.061 5.151-0.911 1.608-2.611 2.601-4.454 2.601h-49.592c-2.171 0-4.096-1.362-4.823-3.4l-24.801-69.427c-0.563-1.567-0.328-3.308 0.635-4.669s2.519-2.171 4.188-2.171h25.856l-15.882-52.931c-0.696-2.345 0.348-4.854 2.509-6.001 0.758-0.399 1.577-0.594 2.396-0.594 1.495 0 2.98 0.655 3.973 1.894l64.471 79.35c1.249 1.526 1.495 3.645 0.655 5.427-0.85 1.782-2.652 2.918-4.628 2.918zM388.71 176.599h-25.672l25.108 41.851c0.952 1.577 0.973 3.553 0.061 5.151-0.911 1.608-2.611 2.601-4.454 2.601h-49.592c-2.161 0-4.096-1.362-4.823-3.4l-24.801-69.427c-0.563-1.567-0.328-3.308 0.635-4.669s2.519-2.171 4.188-2.171h25.856l-15.882-52.931c-0.696-2.345 0.348-4.854 2.509-6.001 0.758-0.399 1.577-0.594 2.396-0.594 1.495 0 2.97 0.655 3.973 1.894l64.471 79.35c1.249 1.526 1.495 3.645 0.645 5.427-0.84 1.782-2.642 2.918-4.618 2.918zM666.685 176.599h-25.672l25.108 41.851c0.952 1.577 0.973 3.553 0.061 5.151-0.911 1.608-2.611 2.601-4.454 2.601h-49.592c-2.161 0-4.096-1.362-4.823-3.4l-24.801-69.427c-0.563-1.567-0.328-3.308 0.635-4.669s2.519-2.171 4.188-2.171h25.856l-15.882-52.931c-0.696-2.345 0.348-4.854 2.509-6.001 0.758-0.399 1.577-0.594 2.396-0.594 1.495 0 2.98 0.655 3.973 1.894l64.471 79.35c1.249 1.526 1.495 3.645 0.645 5.427-0.84 1.782-2.642 2.918-4.618 2.918z" />
<glyph unicode="&#xe90a;" glyph-name="icon-11" data-tags="icon-11" d="M830.802 513.69c0 40.131-29.645 73.329-68.219 78.909-11.131 36.465-45.036 62.986-85.135 62.986-28.191 0-53.32-13.107-69.622-33.567-8.899 4.813-19.098 7.547-29.932 7.547-21.565 0-40.499-10.926-51.845-27.453-24.689 14.787-53.289 23.101-83.18 23.101-86.764 0-157.85-68.444-162.089-154.184-50.78-12.257-87.572-57.928-87.572-111.36 0-63.017 51.425-114.289 114.637-114.289h361.37c0.563 0 1.126 0.031 1.69 0.092 62.126 6.881 108.984 59.382 108.984 122.143 0 24.279-7.229 47.37-19.937 66.847 39.844 4.434 70.851 38.195 70.851 79.227zM307.845 276.122c-46.275 0-83.917 37.489-83.917 83.569 0 42.516 31.826 78.316 74.035 83.292 7.916 0.932 13.814 7.772 13.558 15.739l-0.133 2.529c-0.041 0.563-0.092 1.116-0.092 1.69 0 72.55 59.023 131.574 131.574 131.574 21.412 0 41.984-5.304 60.303-14.787 25.999-13.466 47.391-35.43 59.812-63.252 1.935-4.342 5.775-7.537 10.404-8.673 4.639-1.126 9.513-0.051 13.22 2.939 10.056 8.038 22.149 12.288 34.98 12.288 30.679 0 55.286-24.054 56.044-54.764 0.154-6.369 4.229-11.981 10.24-14.1 12.462-4.403 23.388-11.479 32.573-20.224 17.848-16.988 28.744-40.694 28.744-66.314 0-46.797-34.693-85.996-80.835-91.505h-360.509zM397.097 193.679c-3.635 6.308-11.684 8.458-17.992 4.823l-16.988-9.81v19.415c0 7.27-5.908 13.169-13.169 13.169-7.281 0-13.169-5.908-13.169-13.169v-19.415l-16.814 9.708c-6.298 3.635-14.356 1.475-17.992-4.833-3.635-6.287-1.475-14.356 4.823-17.981l16.814-9.708-16.814-9.708c-6.298-3.635-8.458-11.694-4.823-17.992 2.447-4.229 6.871-6.584 11.418-6.584 2.243 0 4.495 0.573 6.574 1.761l16.814 9.708v-19.61c0-7.281 5.898-13.179 13.169-13.179s13.169 5.898 13.169 13.179v19.61l16.988-9.81c2.068-1.198 4.332-1.772 6.574-1.772 4.557 0 8.98 2.355 11.418 6.584 3.635 6.308 1.475 14.356-4.833 17.992l-16.988 9.82 16.998 9.81c6.298 3.645 8.458 11.694 4.823 17.992zM536.084 193.679c-3.635 6.308-11.684 8.458-17.992 4.823l-16.988-9.81v19.415c0 7.27-5.908 13.169-13.169 13.169-7.281 0-13.179-5.908-13.179-13.169v-19.415l-16.814 9.708c-6.287 3.635-14.356 1.475-17.992-4.833-3.635-6.287-1.475-14.356 4.823-17.981l16.814-9.708-16.814-9.708c-6.287-3.635-8.458-11.694-4.823-17.992 2.447-4.229 6.871-6.584 11.418-6.584 2.243 0 4.506 0.573 6.574 1.761l16.814 9.708v-19.61c0-7.281 5.898-13.179 13.179-13.179 7.26 0 13.169 5.898 13.169 13.179v19.61l16.988-9.81c2.079-1.198 4.332-1.772 6.574-1.772 4.557 0 8.98 2.355 11.418 6.584 3.635 6.308 1.475 14.356-4.833 17.992l-16.988 9.82 16.998 9.81c6.298 3.645 8.468 11.694 4.823 17.992zM675.082 193.679c-3.635 6.308-11.684 8.458-17.992 4.823l-16.988-9.81v19.415c0 7.27-5.908 13.169-13.169 13.169-7.281 0-13.169-5.908-13.169-13.169v-19.415l-16.814 9.708c-6.298 3.635-14.356 1.475-17.992-4.833-3.635-6.287-1.475-14.356 4.813-17.981l16.814-9.708-16.814-9.708c-6.287-3.635-8.458-11.694-4.813-17.992 2.447-4.229 6.871-6.584 11.418-6.584 2.243 0 4.506 0.573 6.574 1.761l16.814 9.708v-19.61c0-7.281 5.898-13.179 13.169-13.179 7.26 0 13.169 5.898 13.169 13.179v19.61l16.988-9.81c2.079-1.198 4.332-1.772 6.574-1.772 4.557 0 8.98 2.355 11.418 6.584 3.635 6.308 1.475 14.356-4.833 17.992l-16.988 9.82 16.998 9.81c6.298 3.645 8.458 11.694 4.823 17.992z" />
<glyph unicode="&#xe90b;" glyph-name="icon-12" data-tags="icon-12" d="M245.033 570.214c19.61 16.947 44.698 26.286 70.656 26.286 22.753 0 44.554-7.025 63.027-20.296 19.804-14.254 43.162-21.78 67.564-21.78s47.77 7.526 67.553 21.78c18.493 13.292 40.294 20.306 63.068 20.306 22.764 0 44.575-7.014 63.058-20.306 19.804-14.254 43.141-21.78 67.482-21.78 37.192 0 72.346 18.002 94.034 48.159 4.956 6.892 3.389 16.486-3.502 21.443-6.902 4.946-16.497 3.389-21.443-3.502-15.933-22.149-41.769-35.379-69.11-35.379-17.848 0-34.97 5.53-49.531 16.005-23.747 17.070-51.753 26.092-80.988 26.092-29.245 0-57.252-9.021-81.009-26.092-29.071-20.941-70.134-20.941-99.246 0-23.736 17.060-51.743 26.081-80.957 26.081-33.331 0-65.556-11.991-90.747-33.772-6.42-5.55-7.127-15.247-1.577-21.668 5.56-6.42 15.247-7.117 21.668-1.577zM797.972 481.198c-6.902 4.946-16.497 3.389-21.443-3.502-15.933-22.149-41.769-35.379-69.11-35.379-17.848 0-34.97 5.53-49.531 16.005-23.747 17.070-51.753 26.092-80.988 26.092-29.245 0-57.252-9.021-81.009-26.092-29.071-20.931-70.134-20.931-99.246 0-23.736 17.070-51.732 26.092-80.968 26.092-33.331 0-65.556-11.991-90.747-33.772-6.42-5.55-7.127-15.247-1.577-21.668 5.56-6.41 15.247-7.107 21.668-1.567 19.61 16.947 44.698 26.286 70.656 26.286 22.753 0 44.554-7.025 63.037-20.306 19.804-14.244 43.162-21.77 67.553-21.77s47.759 7.526 67.553 21.77c18.493 13.292 40.294 20.306 63.068 20.306 22.764 0 44.575-7.025 63.058-20.306 19.804-14.254 43.141-21.78 67.482-21.78 37.192 0 72.346 18.002 94.034 48.159 4.966 6.881 3.4 16.476-3.492 21.432zM797.972 338.36c-6.902 4.946-16.497 3.389-21.443-3.502-15.933-22.149-41.769-35.379-69.11-35.379-17.848 0-34.97 5.53-49.531 16.005-23.757 17.080-51.763 26.102-80.988 26.102-29.235 0-57.242-9.021-81.009-26.102-29.071-20.931-70.134-20.931-99.246 0-23.736 17.070-51.732 26.092-80.968 26.092-33.331 0-65.556-11.991-90.747-33.772-6.42-5.55-7.127-15.247-1.577-21.668 5.56-6.41 15.247-7.107 21.668-1.567 19.61 16.947 44.698 26.286 70.656 26.286 22.753 0 44.554-7.014 63.037-20.306 19.804-14.244 43.162-21.77 67.553-21.77s47.759 7.526 67.553 21.77c18.493 13.292 40.305 20.316 63.068 20.316 22.753 0 44.564-7.025 63.058-20.316 19.804-14.254 43.141-21.78 67.482-21.78 37.192 0 72.346 18.002 94.034 48.159 4.966 6.892 3.4 16.486-3.492 21.432z" />
<glyph unicode="&#xe90c;" glyph-name="icon-13" data-tags="icon-13" d="M521.574 750.694c-1.423 1.423-3.133 2.56-5.018 3.338-0.082 0.031-0.154 0.041-0.236 0.072-1.741 0.686-3.625 1.096-5.601 1.096-1.987 0-3.86-0.41-5.601-1.085-0.082-0.031-0.164-0.041-0.236-0.072-1.894-0.778-3.594-1.915-5.018-3.338l-90.88-90.88c-6.001-6.001-6.001-15.718 0-21.719s15.718-6.001 21.719 0l64.666 64.655v-608.041c0-8.479 6.881-15.36 15.36-15.36s15.36 6.881 15.36 15.36v608.041l65.935-65.935c3-3 6.932-4.506 10.865-4.506s7.864 1.495 10.854 4.506c6.001 6.001 6.001 15.718 0 21.719l-92.17 92.15zM418.56 785.92h186.88c8.479 0 15.36 6.881 15.36 15.36s-6.881 15.36-15.36 15.36h-186.88c-8.479 0-15.36-6.881-15.36-15.36s6.881-15.36 15.36-15.36z" />
<glyph unicode="&#xe90d;" glyph-name="icon-14" data-tags="icon-14" d="M499.855 145.295c1.423-1.423 3.133-2.56 5.018-3.338 0.082-0.031 0.164-0.041 0.236-0.072 1.751-0.676 3.635-1.085 5.612-1.085s3.86 0.41 5.601 1.085c0.082 0.031 0.164 0.041 0.236 0.072 1.894 0.778 3.594 1.915 5.018 3.338l92.16 92.16c6.001 6.001 6.001 15.718 0 21.719s-15.718 6.001-21.719 0l-65.935-65.935v608.041c0 8.479-6.881 15.36-15.36 15.36s-15.36-6.881-15.36-15.36v-608.041l-64.666 64.655c-6.001 6.001-15.718 6.001-21.719 0s-6.001-15.718 0-21.719l90.88-90.88zM605.44 110.080h-186.88c-8.479 0-15.36-6.881-15.36-15.36s6.881-15.36 15.36-15.36h186.88c8.479 0 15.36 6.881 15.36 15.36s-6.881 15.36-15.36 15.36z" />
<glyph unicode="&#xe90e;" glyph-name="icon-15" data-tags="icon-15" d="M752.251 335.892c0-8.479 6.881-15.36 15.36-15.36h96.389c8.479 0 15.36 6.881 15.36 15.36s-6.881 15.36-15.36 15.36h-96.389c-8.479 0-15.36-6.881-15.36-15.36zM160 320.532h96.389c8.479 0 15.36 6.881 15.36 15.36s-6.881 15.36-15.36 15.36h-96.389c-8.479 0-15.36-6.881-15.36-15.36s6.881-15.36 15.36-15.36zM320.389 505.784c3-3 6.932-4.495 10.854-4.495s7.864 1.495 10.865 4.495c6.001 6.001 6.001 15.718 0 21.719l-68.147 68.157c-6.001 6.001-15.718 6.001-21.719 0s-6.001-15.718 0-21.719l68.147-68.157zM512 576.143c8.479 0 15.36 6.881 15.36 15.36v96.389c0 8.479-6.881 15.36-15.36 15.36s-15.36-6.881-15.36-15.36v-96.389c0-8.479 6.881-15.36 15.36-15.36zM692.736 501.289c3.932 0 7.864 1.495 10.865 4.495l68.157 68.157c6.001 6.001 6.001 15.718 0 21.719s-15.718 6.001-21.719 0l-68.157-68.157c-6.001-6.001-6.001-15.718 0-21.719 3-3 6.932-4.495 10.854-4.495zM522.373 440.873c-1.423 1.423-3.133 2.56-5.028 3.338-0.082 0.031-0.154 0.041-0.236 0.072-1.741 0.686-3.615 1.085-5.601 1.085-1.976 0-3.86-0.41-5.601-1.085-0.082-0.031-0.164-0.041-0.236-0.072-1.894-0.778-3.604-1.915-5.028-3.338l-69.704-69.693c-6.001-6.001-6.001-15.718 0-21.719s15.718-6.001 21.719 0l43.479 43.469v-96.399c0-8.479 6.881-15.36 15.36-15.36s15.36 6.881 15.36 15.36v96.399l44.452-44.452c3-3 6.932-4.495 10.854-4.495 3.932 0 7.864 1.495 10.865 4.495 6.001 6.001 6.001 15.718 0 21.719l-70.656 70.676zM864 223.468h-164.608c20.347 33.864 31.488 72.806 31.488 112.445 0 120.678-98.191 218.86-218.89 218.86-120.689 0-218.88-98.181-218.88-218.86 0-39.649 11.141-78.582 31.488-112.445h-164.598c-8.479 0-15.36-6.881-15.36-15.36s6.881-15.36 15.36-15.36h704.010c8.479 0 15.36 6.881 15.36 15.36-0.010 8.479-6.892 15.36-15.37 15.36zM323.83 335.913c0 103.741 84.408 188.14 188.16 188.14 103.762 0 188.17-84.398 188.17-188.14 0-41.001-12.943-79.729-37.489-112.445h-301.353c-24.545 32.717-37.489 71.444-37.489 112.445z" />
<glyph unicode="&#xe90f;" glyph-name="icon-16" data-tags="icon-16" d="M752.251 335.892c0-8.479 6.881-15.36 15.36-15.36h96.389c8.479 0 15.36 6.881 15.36 15.36s-6.881 15.36-15.36 15.36h-96.389c-8.479 0-15.36-6.881-15.36-15.36zM160 320.532h96.389c8.479 0 15.36 6.881 15.36 15.36s-6.881 15.36-15.36 15.36h-96.389c-8.479 0-15.36-6.881-15.36-15.36s6.881-15.36 15.36-15.36zM320.389 505.784c3-3 6.932-4.495 10.854-4.495 3.932 0 7.864 1.495 10.865 4.495 6.001 6.001 6.001 15.718 0 21.719l-68.147 68.157c-6.001 6.001-15.718 6.001-21.719 0s-6.001-15.718 0-21.719l68.147-68.157zM512 576.143c8.479 0 15.36 6.881 15.36 15.36v96.389c0 8.479-6.881 15.36-15.36 15.36s-15.36-6.881-15.36-15.36v-96.389c0-8.479 6.881-15.36 15.36-15.36zM692.736 501.289c3.932 0 7.864 1.495 10.865 4.495l68.157 68.157c6.001 6.001 6.001 15.718 0 21.719s-15.718 6.001-21.719 0l-68.157-68.157c-6.001-6.001-6.001-15.718 0-21.719 3-3 6.932-4.495 10.854-4.495zM571.32 378.071l-44.452-44.462v96.399c0 8.479-6.881 15.36-15.36 15.36s-15.36-6.881-15.36-15.36v-96.399l-43.479 43.479c-6.001 6.001-15.718 6.001-21.719 0s-6.001-15.718 0-21.719l69.704-69.704c0.707-0.707 1.485-1.341 2.314-1.894 0.246-0.164 0.522-0.266 0.768-0.42 0.614-0.358 1.219-0.727 1.874-1.004 0.317-0.133 0.655-0.195 0.983-0.307 0.625-0.215 1.229-0.44 1.884-0.573 0.993-0.205 2.007-0.307 3.041-0.307 1.024 0 2.048 0.102 3.041 0.307 0.655 0.133 1.27 0.358 1.894 0.573 0.317 0.113 0.655 0.174 0.973 0.297 0.666 0.276 1.28 0.645 1.905 1.014 0.246 0.143 0.502 0.246 0.737 0.399 0.829 0.563 1.608 1.198 2.314 1.894l70.666 70.676c6.001 6.001 6.001 15.718 0 21.719-6.011 6.031-15.729 6.031-21.729 0.031zM864 223.468h-164.608c20.347 33.864 31.488 72.806 31.488 112.445 0 120.678-98.191 218.86-218.89 218.86-120.689 0-218.88-98.181-218.88-218.86 0-39.649 11.141-78.582 31.488-112.445h-164.598c-8.479 0-15.36-6.881-15.36-15.36s6.881-15.36 15.36-15.36h704.010c8.479 0 15.36 6.881 15.36 15.36-0.010 8.479-6.892 15.36-15.37 15.36zM323.83 335.913c0 103.741 84.408 188.14 188.16 188.14 103.762 0 188.17-84.398 188.17-188.14 0-41.001-12.943-79.729-37.489-112.445h-301.353c-24.545 32.717-37.489 71.444-37.489 112.445z" />
<glyph unicode="&#xe910;" glyph-name="icon-17" data-tags="icon-17" d="M159.416 577.925h266.26c57.733 0 104.694 46.971 104.694 104.704s-46.971 104.694-104.694 104.694-104.694-46.961-104.694-104.694c0-28.856 11.735-55.020 30.679-73.984h-192.246c-8.479 0-15.36-6.881-15.36-15.36s6.881-15.36 15.36-15.36zM351.703 682.629c0 40.786 33.178 73.974 73.974 73.974s73.974-33.178 73.974-73.974-33.178-73.984-73.974-73.984-73.974 33.198-73.974 73.984zM775.281 640.911c-57.733 0-104.704-46.961-104.704-104.694 0-28.856 11.735-55.020 30.689-73.984h-541.88c-8.479 0-15.36-6.881-15.36-15.36s6.881-15.36 15.36-15.36h615.895c57.733 0 104.694 46.971 104.694 104.704s-46.961 104.694-104.694 104.694zM775.281 462.244c-40.786 0-73.984 33.188-73.984 73.984s33.188 73.974 73.984 73.974c40.786 0 73.974-33.178 73.974-73.974s-33.178-73.984-73.974-73.984zM579.451 318.065h-420.065c-8.479 0-15.36-6.881-15.36-15.36s6.881-15.36 15.36-15.36h346.051c-18.944-18.954-30.669-45.117-30.669-73.974 0-57.733 46.961-104.694 104.694-104.694s104.694 46.961 104.694 104.694c-0.010 57.733-46.971 104.694-104.704 104.694zM579.451 139.397c-40.786 0-73.974 33.178-73.974 73.974s33.178 73.974 73.974 73.974c40.786 0 73.974-33.178 73.974-73.974s-33.178-73.974-73.974-73.974z" />
<glyph unicode="&#xe911;" glyph-name="icon-18" data-tags="icon-18" d="M567.501 292.045v469.094c0 30.607-24.904 55.501-55.501 55.501s-55.501-24.893-55.501-55.501v-469.094c-35.604-19.968-58.112-57.825-58.112-99.062 0-62.659 50.975-113.623 113.613-113.623s113.613 50.964 113.613 113.613c0 41.247-22.518 79.104-58.112 99.072zM512 110.080c-45.711 0-82.893 37.181-82.893 82.893 0 32.563 19.251 62.239 49.039 75.602 5.519 2.478 9.073 7.967 9.073 14.019v478.546c0 13.67 11.121 24.781 24.781 24.781s24.781-11.11 24.781-24.781v-478.546c0-6.052 3.553-11.54 9.073-14.019 29.788-13.363 49.039-43.039 49.039-75.602 0-45.711-37.181-82.893-82.893-82.893z" />
<glyph unicode="&#xe912;" glyph-name="icon-19" data-tags="icon-19" d="M567.501 292.045v469.094c0 30.607-24.904 55.501-55.501 55.501s-55.501-24.893-55.501-55.501v-469.094c-35.604-19.968-58.112-57.825-58.112-99.062 0-62.659 50.975-113.623 113.613-113.623s113.613 50.964 113.613 113.613c0 41.247-22.518 79.104-58.112 99.072zM512 110.080c-45.711 0-82.893 37.181-82.893 82.893 0 32.563 19.251 62.239 49.039 75.602 5.519 2.478 9.073 7.967 9.073 14.019v478.546c0 13.67 11.121 24.781 24.781 24.781s24.781-11.11 24.781-24.781v-478.546c0-6.052 3.553-11.54 9.073-14.019 29.788-13.363 49.039-43.039 49.039-75.602 0-45.711-37.181-82.893-82.893-82.893zM564.675 193.28c0-29.091-23.583-52.675-52.675-52.675s-52.675 23.583-52.675 52.675c0 29.091 23.583 52.675 52.675 52.675s52.675-23.583 52.675-52.675z" />
<glyph unicode="&#xe913;" glyph-name="icon-20" data-tags="icon-20" d="M567.501 292.045v469.094c0 30.607-24.904 55.501-55.501 55.501s-55.501-24.893-55.501-55.501v-469.094c-35.604-19.968-58.112-57.825-58.112-99.062 0-62.659 50.975-113.623 113.613-113.623s113.613 50.964 113.613 113.613c0 41.247-22.518 79.104-58.112 99.072zM512 110.080c-45.711 0-82.893 37.181-82.893 82.893 0 32.563 19.251 62.239 49.039 75.602 5.519 2.478 9.073 7.967 9.073 14.019v478.546c0 13.67 11.121 24.781 24.781 24.781s24.781-11.11 24.781-24.781v-478.546c0-6.052 3.553-11.54 9.073-14.019 29.788-13.363 49.039-43.039 49.039-75.602 0-45.711-37.181-82.893-82.893-82.893zM524.278 244.060l0.031 0.102c-4.301 1.341-7.188 5.274-7.188 9.779v204.739h-10.24v-204.739c0-4.506-2.888-8.428-7.188-9.779l0.031-0.102c-23.142-5.55-40.397-26.245-40.397-51.087 0-29.092 23.583-52.664 52.675-52.664s52.664 23.583 52.664 52.664c0.010 24.842-17.244 45.527-40.387 51.087z" />
<glyph unicode="&#xe914;" glyph-name="icon-21" data-tags="icon-21" d="M512.195 211.241c-181.668 0-325.693 174.428-365.496 227.881-4.014 5.386-4.055 12.769-0.113 18.196 38.758 53.361 179.651 227.441 365.609 227.441 176.599 0 314.173-158.945 365.107-227.277 4.106-5.499 4.055-13.056-0.102-18.504-52.316-68.475-192.625-227.738-365.005-227.738zM178.207 448.41c45.425-58.696 175.596-206.449 333.978-206.449 154.266 0 286.781 147.63 333.425 206.449-45.517 58.696-175.35 205.629-333.425 205.629-162.15 0-289.679-147.077-333.978-205.629zM516.454 334.264c-63.836 0-115.773 51.948-115.773 115.804 0 63.836 51.927 115.773 115.773 115.773s115.804-51.937 115.804-115.773c-0.010-63.857-51.958-115.804-115.804-115.804zM516.454 535.112c-46.899 0-85.053-38.154-85.053-85.053 0-46.92 38.154-85.084 85.053-85.084 46.909 0 85.084 38.164 85.084 85.084-0.010 46.899-38.185 85.053-85.084 85.053z" />
<glyph unicode="&#xe915;" glyph-name="icon-22" data-tags="icon-22" d="M627.415 366.643c-8.479 0-15.36 6.871-15.36 15.36 0 55.173-44.882 100.055-100.055 100.055s-100.055-44.882-100.055-100.055c0-8.489-6.881-15.36-15.36-15.36s-15.36 6.871-15.36 15.36c0 55.173-44.892 100.055-100.065 100.055-54.303 0-98.109-42.66-99.727-97.106-0.225-7.926-6.461-14.367-14.356-14.879-8.079-0.481-14.909 5.089-16.159 12.902-3.359 21.033-4.987 39.946-4.987 57.825 0 201.851 164.219 366.070 366.080 366.070 201.851 0 366.070-164.219 366.070-366.070 0-17.879-1.628-36.792-4.987-57.825-1.249-7.823-8.151-13.394-16.159-12.902-7.905 0.512-14.131 6.953-14.356 14.879-1.618 54.456-45.425 97.106-99.717 97.106-55.183 0-100.065-44.882-100.065-100.055-0.020-8.479-6.902-15.36-15.38-15.36zM512 512.788c49.91 0 93.379-28.109 115.415-69.325 22.036 41.216 65.505 69.325 115.425 69.325 42.506 0 80.087-19.968 103.885-51.261-10.732 175.309-156.764 314.634-334.725 314.634-177.971 0-324.004-139.336-334.725-314.644 23.788 31.293 61.379 51.272 103.885 51.272 49.91 0 93.379-28.109 115.425-69.325 22.036 41.216 65.505 69.325 115.415 69.325zM571.914 89.119c-59.546 0-75.274 52.244-75.274 79.872v328.438c0 8.489 6.881 15.36 15.36 15.36s15.36-6.871 15.36-15.36v-328.438c0.051-4.966 1.69-49.152 44.554-49.152 44.093 0 45.363 44.124 45.363 49.152 0 8.489 6.881 15.36 15.36 15.36s15.36-6.871 15.36-15.36c0-27.628-15.903-79.872-76.083-79.872z" />
<glyph unicode="&#xe916;" glyph-name="icon-23" data-tags="icon-23" d="M512 816.64c-203.274 0-368.64-165.366-368.64-368.64s165.366-368.64 368.64-368.64 368.64 165.366 368.64 368.64-165.366 368.64-368.64 368.64zM512 110.080c-186.327 0-337.92 151.593-337.92 337.92s151.593 337.92 337.92 337.92 337.92-151.593 337.92-337.92-151.593-337.92-337.92-337.92zM516.792 599.931c-1.495 4.004-8.079 4.004-9.585 0l-111.657-297.748c-0.778-2.079-0.133-4.434 1.608-5.806 1.751-1.393 4.168-1.495 6.021-0.246l108.82 72.53 108.82-72.54c0.86-0.584 1.853-0.86 2.836-0.86 1.126 0 2.253 0.369 3.185 1.106 1.741 1.382 2.386 3.727 1.608 5.806l-111.657 297.759z" />
<glyph unicode="&#xe917;" glyph-name="icon-24" data-tags="icon-24" d="M512 816.64c-203.274 0-368.64-165.366-368.64-368.64s165.366-368.64 368.64-368.64c203.274 0 368.64 165.366 368.64 368.64s-165.366 368.64-368.64 368.64zM512 110.080c-186.327 0-337.92 151.593-337.92 337.92s151.593 337.92 337.92 337.92c186.327 0 337.92-151.593 337.92-337.92s-151.593-337.92-337.92-337.92zM570.931 591.524c-1.956 0.809-4.239 0.307-5.704-1.229l-217.098-232.346c-1.516-1.628-1.812-4.055-0.737-5.99 1.096-1.935 3.308-3.011 5.468-2.529l128.297 25.375 72.765-108.657c0.963-1.444 2.57-2.273 4.25-2.273 0.471 0 0.942 0.061 1.413 0.205 2.13 0.614 3.635 2.529 3.707 4.751l10.793 317.809c0.072 2.109-1.188 4.065-3.154 4.884z" />
<glyph unicode="&#xe918;" glyph-name="icon-25" data-tags="icon-25" d="M512 816.64c-203.274 0-368.64-165.366-368.64-368.64s165.366-368.64 368.64-368.64c203.274 0 368.64 165.366 368.64 368.64s-165.366 368.64-368.64 368.64zM512 110.080c-186.327 0-337.92 151.593-337.92 337.92s151.593 337.92 337.92 337.92c186.327 0 337.92-151.593 337.92-337.92s-151.593-337.92-337.92-337.92zM615.148 559.176l-289.485-131.594c-2.017-0.922-3.215-3.041-2.97-5.253 0.256-2.202 1.905-3.994 4.086-4.434l128.236-25.641 25.641-128.236c0.44-2.181 2.232-3.83 4.434-4.086 0.205-0.020 0.399-0.031 0.594-0.031 1.987 0 3.82 1.157 4.659 3l131.594 289.495c0.881 1.935 0.471 4.229-1.044 5.745-1.505 1.505-3.789 1.905-5.745 1.034z" />
<glyph unicode="&#xe919;" glyph-name="icon-26" data-tags="icon-26" d="M512 816.64c-203.274 0-368.64-165.366-368.64-368.64s165.366-368.64 368.64-368.64c203.274 0 368.64 165.366 368.64 368.64s-165.366 368.64-368.64 368.64zM512 110.080c-186.327 0-337.92 151.593-337.92 337.92s151.593 337.92 337.92 337.92c186.327 0 337.92-151.593 337.92-337.92s-151.593-337.92-337.92-337.92zM649.37 511.345l-317.809-10.783c-2.222-0.082-4.137-1.577-4.751-3.707-0.614-2.14 0.215-4.434 2.068-5.663l108.657-72.765-25.375-128.307c-0.43-2.181 0.594-4.393 2.529-5.468 0.778-0.43 1.638-0.645 2.488-0.645 1.27 0 2.519 0.471 3.502 1.382l232.356 217.088c1.546 1.464 2.048 3.727 1.229 5.704-0.809 1.966-3.133 3.021-4.895 3.164z" />
<glyph unicode="&#xe91a;" glyph-name="icon-27" data-tags="icon-27" d="M512 816.64c-203.274 0-368.64-165.366-368.64-368.64s165.366-368.64 368.64-368.64c203.274 0 368.64 165.366 368.64 368.64s-165.366 368.64-368.64 368.64zM512 110.080c-186.327 0-337.92 151.593-337.92 337.92s151.593 337.92 337.92 337.92c186.327 0 337.92-151.593 337.92-337.92s-151.593-337.92-337.92-337.92zM662.682 454.042l-297.748 111.657c-2.079 0.778-4.424 0.123-5.806-1.608-1.382-1.741-1.485-4.168-0.246-6.021l72.55-108.82-72.55-108.81c-1.229-1.853-1.126-4.28 0.246-6.021 0.993-1.249 2.478-1.935 4.014-1.935 0.604 0 1.208 0.113 1.802 0.328l297.748 111.647c1.997 0.748 3.318 2.662 3.318 4.792s-1.331 4.045-3.328 4.792z" />
<glyph unicode="&#xe91b;" glyph-name="icon-28" data-tags="icon-28" d="M512 816.64c-203.274 0-368.64-165.366-368.64-368.64s165.366-368.64 368.64-368.64c203.274 0 368.64 165.366 368.64 368.64s-165.366 368.64-368.64 368.64zM512 110.080c-186.327 0-337.92 151.593-337.92 337.92s151.593 337.92 337.92 337.92c186.327 0 337.92-151.593 337.92-337.92s-151.593-337.92-337.92-337.92zM420.69 613.12c-1.638 1.516-4.055 1.812-5.99 0.737s-2.959-3.287-2.529-5.468l25.364-128.297-108.657-72.765c-1.853-1.229-2.683-3.523-2.068-5.663 0.614-2.13 2.529-3.635 4.751-3.707l317.809-10.793c0.051 0 0.113 0 0.174 0 2.068 0 3.942 1.239 4.731 3.164 0.819 1.966 0.317 4.239-1.229 5.704l-232.356 217.088z" />
<glyph unicode="&#xe91c;" glyph-name="icon-29" data-tags="icon-29" d="M512 816.64c-203.274 0-368.64-165.366-368.64-368.64s165.366-368.64 368.64-368.64c203.274 0 368.64 165.366 368.64 368.64s-165.366 368.64-368.64 368.64zM512 110.080c-186.327 0-337.92 151.593-337.92 337.92s151.593 337.92 337.92 337.92c186.327 0 337.92-151.593 337.92-337.92s-151.593-337.92-337.92-337.92zM490.342 635.587c-0.922 2.017-2.99 3.246-5.253 2.97-2.202-0.256-3.994-1.915-4.434-4.086l-25.651-128.225-128.236-25.651c-2.181-0.44-3.83-2.232-4.086-4.434-0.246-2.212 0.952-4.332 2.97-5.253l289.505-131.594c0.676-0.307 1.403-0.461 2.12-0.461 1.331 0 2.642 0.522 3.625 1.495 1.505 1.505 1.925 3.799 1.034 5.745l-131.594 289.495z" />
<glyph unicode="&#xe91d;" glyph-name="icon-30" data-tags="icon-30" d="M512 816.64c-203.274 0-368.64-165.366-368.64-368.64s165.366-368.64 368.64-368.64 368.64 165.366 368.64 368.64-165.366 368.64-368.64 368.64zM512 110.080c-186.327 0-337.92 151.593-337.92 337.92s151.593 337.92 337.92 337.92 337.92-151.593 337.92-337.92-151.593-337.92-337.92-337.92zM559.596 634.44c-2.161 0.645-4.434-0.225-5.663-2.068l-72.765-108.657-128.307 25.385c-2.161 0.44-4.393-0.594-5.468-2.529-1.065-1.935-0.778-4.362 0.737-5.99l217.098-232.356c0.993-1.044 2.345-1.618 3.738-1.618 0.655 0 1.331 0.133 1.956 0.389 1.966 0.819 3.226 2.775 3.164 4.905l-10.783 317.809c-0.072 2.202-1.577 4.116-3.707 4.731z" />
<glyph unicode="&#xe91e;" glyph-name="icon-31" data-tags="icon-31" d="M512 816.64c-203.274 0-368.64-165.366-368.64-368.64s165.366-368.64 368.64-368.64 368.64 165.366 368.64 368.64-165.366 368.64-368.64 368.64zM512 110.080c-186.327 0-337.92 151.593-337.92 337.92s151.593 337.92 337.92 337.92 337.92-151.593 337.92-337.92-151.593-337.92-337.92-337.92zM620.81 602.388l-108.81-72.55-108.82 72.55c-1.843 1.239-4.28 1.147-6.021-0.246-1.741-1.382-2.386-3.727-1.608-5.806l111.657-297.748c0.748-1.997 2.662-3.318 4.792-3.318s4.045 1.321 4.792 3.318l111.647 297.748c0.778 2.079 0.133 4.434-1.608 5.806-1.751 1.382-4.178 1.485-6.021 0.246z" />
<glyph unicode="&#xe91f;" glyph-name="icon-32" data-tags="icon-32" d="M512 816.64c-203.274 0-368.64-165.366-368.64-368.64s165.366-368.64 368.64-368.64 368.64 165.366 368.64 368.64-165.366 368.64-368.64 368.64zM512 110.080c-186.327 0-337.92 151.593-337.92 337.92s151.593 337.92 337.92 337.92 337.92-151.593 337.92-337.92-151.593-337.92-337.92-337.92zM671.13 549.089l-128.297-25.385-72.765 108.657c-1.229 1.853-3.533 2.724-5.663 2.068-2.13-0.614-3.625-2.529-3.707-4.751l-10.793-317.809c-0.072-2.13 1.188-4.076 3.164-4.905 0.635-0.256 1.3-0.389 1.956-0.389 1.393 0 2.755 0.573 3.738 1.618l217.098 232.376c1.516 1.628 1.812 4.055 0.737 5.99s-3.308 2.97-5.468 2.529z" />
<glyph unicode="&#xe920;" glyph-name="icon-33" data-tags="icon-33" d="M512 816.64c-203.274 0-368.64-165.366-368.64-368.64s165.366-368.64 368.64-368.64 368.64 165.366 368.64 368.64-165.366 368.64-368.64 368.64zM512 110.080c-186.327 0-337.92 151.593-337.92 337.92s151.593 337.92 337.92 337.92 337.92-151.593 337.92-337.92-151.593-337.92-337.92-337.92zM697.221 480.594l-128.225 25.651-25.661 128.225c-0.44 2.181-2.232 3.83-4.434 4.086-2.314 0.256-4.332-0.952-5.253-2.97l-131.594-289.485c-0.881-1.935-0.471-4.229 1.044-5.745 0.983-0.983 2.294-1.495 3.625-1.495 0.717 0 1.444 0.154 2.12 0.461l289.495 131.594c2.017 0.922 3.215 3.041 2.97 5.253-0.256 2.191-1.905 3.983-4.086 4.424z" />
<glyph unicode="&#xe921;" glyph-name="icon-34" data-tags="icon-34" d="M512 816.64c-203.274 0-368.64-165.366-368.64-368.64s165.366-368.64 368.64-368.64c203.274 0 368.64 165.366 368.64 368.64s-165.366 368.64-368.64 368.64zM512 110.080c-186.327 0-337.92 151.593-337.92 337.92s151.593 337.92 337.92 337.92c186.327 0 337.92-151.593 337.92-337.92s-151.593-337.92-337.92-337.92zM586.455 480.092l25.375 128.297c0.43 2.181-0.594 4.393-2.529 5.468-1.946 1.065-4.352 0.778-5.99-0.737l-232.346-217.098c-1.546-1.464-2.048-3.727-1.229-5.704 0.788-1.925 2.662-3.164 4.731-3.164 0.061 0 0.123 0 0.174 0l317.809 10.793c2.222 0.082 4.137 1.577 4.751 3.707 0.604 2.14-0.225 4.434-2.068 5.663l-108.677 72.776z" />
<glyph unicode="&#xe922;" glyph-name="icon-35" data-tags="icon-35" d="M512 816.64c-203.274 0-368.64-165.366-368.64-368.64s165.366-368.64 368.64-368.64c203.274 0 368.64 165.366 368.64 368.64s-165.366 368.64-368.64 368.64zM512 110.080c-186.327 0-337.92 151.593-337.92 337.92s151.593 337.92 337.92 337.92c186.327 0 337.92-151.593 337.92-337.92s-151.593-337.92-337.92-337.92zM664.893 564.091c-1.382 1.741-3.717 2.396-5.806 1.608l-297.759-111.657c-1.997-0.748-3.318-2.662-3.318-4.792s1.321-4.045 3.318-4.792l297.748-111.647c0.594-0.215 1.198-0.328 1.802-0.328 1.526 0 3.021 0.686 4.014 1.935 1.382 1.741 1.485 4.168 0.246 6.021l-72.55 108.81 72.55 108.82c1.229 1.853 1.126 4.28-0.246 6.021z" />
<glyph unicode="&#xe923;" glyph-name="icon-36" data-tags="icon-36" d="M512 816.64c-203.274 0-368.64-165.366-368.64-368.64s165.366-368.64 368.64-368.64c203.274 0 368.64 165.366 368.64 368.64s-165.366 368.64-368.64 368.64zM512 110.080c-186.327 0-337.92 151.593-337.92 337.92s151.593 337.92 337.92 337.92c186.327 0 337.92-151.593 337.92-337.92s-151.593-337.92-337.92-337.92zM692.439 500.562l-317.809 10.783c-1.843-0.113-4.086-1.178-4.905-3.164-0.819-1.966-0.317-4.239 1.229-5.704l232.346-217.098c0.983-0.911 2.232-1.382 3.502-1.382 0.85 0 1.71 0.215 2.488 0.645 1.935 1.075 2.959 3.287 2.529 5.468l-25.375 128.307 108.657 72.765c1.853 1.229 2.683 3.523 2.068 5.663-0.594 2.14-2.509 3.635-4.731 3.717z" />
<glyph unicode="&#xe924;" glyph-name="icon-37" data-tags="icon-37" d="M512 816.64c-203.274 0-368.64-165.366-368.64-368.64s165.366-368.64 368.64-368.64c203.274 0 368.64 165.366 368.64 368.64s-165.366 368.64-368.64 368.64zM512 110.080c-186.327 0-337.92 151.593-337.92 337.92s151.593 337.92 337.92 337.92c186.327 0 337.92-151.593 337.92-337.92s-151.593-337.92-337.92-337.92zM698.337 427.592l-289.485 131.584c-1.935 0.881-4.229 0.471-5.745-1.034-1.505-1.516-1.925-3.799-1.044-5.745l131.584-289.495c0.84-1.843 2.673-3 4.659-3 0.195 0 0.389 0.010 0.594 0.031 2.202 0.256 3.994 1.905 4.434 4.086l25.651 128.236 128.236 25.641c2.181 0.44 3.83 2.232 4.086 4.434 0.256 2.222-0.952 4.342-2.97 5.263z" />
<glyph unicode="&#xe925;" glyph-name="icon-38" data-tags="icon-38" d="M512 816.64c-203.274 0-368.64-165.366-368.64-368.64s165.366-368.64 368.64-368.64c203.274 0 368.64 165.366 368.64 368.64s-165.366 368.64-368.64 368.64zM512 110.080c-186.327 0-337.92 151.593-337.92 337.92s151.593 337.92 337.92 337.92c186.327 0 337.92-151.593 337.92-337.92s-151.593-337.92-337.92-337.92zM458.772 590.295c-1.464 1.536-3.748 2.038-5.704 1.229-1.966-0.819-3.226-2.775-3.164-4.895l10.793-317.809c0.082-2.222 1.577-4.137 3.707-4.751 0.471-0.143 0.942-0.205 1.413-0.205 1.679 0 3.287 0.829 4.25 2.273l72.765 108.657 128.297-25.375c2.15-0.471 4.383 0.594 5.468 2.529 1.065 1.946 0.778 4.362-0.737 5.99l-217.088 232.356z" />
</font>
</defs>
</svg>
