<?xml version="1.0" encoding="utf-8"?>
<!-- Generator: Adobe Illustrator 17.0.0, SVG Export Plug-In . SVG Version: 6.00 Build 0)  -->
<!DOCTYPE svg PUBLIC "-//W3C//DTD SVG 1.1//EN" "http://www.w3.org/Graphics/SVG/1.1/DTD/svg11.dtd">
<svg version="1.1" id="Capa_1" xmlns="http://www.w3.org/2000/svg" xmlns:xlink="http://www.w3.org/1999/xlink" x="0px" y="0px"
	 width="300px" height="398.722px" viewBox="0 0 300 398.722" enable-background="new 0 0 300 398.722" xml:space="preserve">
<g>
	<g>
		<path fill="#730484" d="M270.886,366.051c-0.071,0.001-0.131-0.004-0.197-0.008c-1.803-0.127-78.188-5.509-111.531-8.486
			c-33.51-2.992-98.656-6.624-99.311-6.661c-1.248-0.07-2.238-1.077-2.287-2.326c-0.049-1.243-4.845-124.756-4.245-163.765
			c0.595-38.647-12.535-97.625-12.668-98.216c-0.161-0.718,0.012-1.471,0.472-2.047c0.46-0.574,1.156-0.909,1.893-0.909h206.661
			c1.048,0,1.977,0.672,2.303,1.668c0.101,0.308,10.165,31.252,14.707,70.215c4.578,39.265,6.266,174.745,6.572,202.937
			l16.783-14.163c0.335-11.839,3.112-117.598-2.177-181.064c-5.561-66.728-17.082-95.153-17.198-95.432
			c-0.513-1.237,0.075-2.655,1.311-3.168c1.235-0.514,2.655,0.073,3.168,1.312c0.484,1.169,11.927,29.407,17.55,96.885
			c5.602,67.237,2.196,181.548,2.16,182.695c-0.021,0.688-0.334,1.334-0.859,1.778l-21.535,18.172
			c-0.402,0.344-0.92,0.559-1.486,0.58c-0.005,0-0.006,0-0.006,0C270.942,366.051,270.915,366.051,270.886,366.051z M62.321,346.179
			c11.715,0.664,67.182,3.862,97.269,6.548c30.017,2.68,95.006,7.315,108.847,8.296c-0.219-21.238-1.858-164.567-6.566-204.946
			c-3.891-33.367-11.859-60.716-13.975-67.595H46.018c2.659,12.535,12.672,62.187,12.147,96.398
			C57.611,220.88,61.677,329.332,62.321,346.179z"/>
	</g>
	<g>
		<path fill="#666666" d="M163.139,56.36c-0.572,0-1.145-0.201-1.605-0.612c-0.314-0.279-7.668-6.975-7.005-18.914
			c0.337-6.071,2.057-8.721,3.575-11.06c1.355-2.088,2.425-3.738,2.482-8.249c0.117-9.321-4.816-12.964-5.026-13.114
			c-1.081-0.774-1.347-2.281-0.585-3.369c0.762-1.088,2.249-1.367,3.344-0.618c0.297,0.204,7.265,5.114,7.115,17.162
			c-0.075,5.912-1.768,8.524-3.263,10.827c-1.36,2.096-2.535,3.906-2.801,8.691c-0.529,9.526,5.155,14.813,5.398,15.033
			c0.987,0.897,1.068,2.428,0.175,3.42C164.464,56.089,163.803,56.36,163.139,56.36z"/>
	</g>
	<g>
		<path fill="#666666" d="M137.207,56.362c-0.573,0-1.149-0.202-1.611-0.614c-0.314-0.279-7.669-6.975-7.006-18.914
			c0.337-6.071,2.057-8.721,3.575-11.06c1.355-2.088,2.427-3.738,2.482-8.248c0.118-9.331-4.954-13.065-5.006-13.101
			c-1.104-0.756-1.387-2.264-0.631-3.37c0.755-1.103,2.262-1.387,3.37-0.631c0.297,0.204,7.267,5.114,7.115,17.162
			c-0.073,5.912-1.768,8.524-3.263,10.827c-1.36,2.096-2.535,3.906-2.801,8.691c-0.535,9.629,5.33,14.971,5.389,15.024
			c1,0.89,1.089,2.423,0.198,3.422C138.54,56.087,137.875,56.362,137.207,56.362z"/>
	</g>
	<g>
		<path fill="#666666" d="M112.896,56.362c-0.573,0-1.149-0.202-1.611-0.614c-0.314-0.279-7.669-6.975-7.006-18.914
			c0.337-6.071,2.057-8.721,3.575-11.06c1.355-2.088,2.427-3.738,2.482-8.248c0.118-9.331-4.954-13.065-5.006-13.101
			c-1.104-0.756-1.387-2.264-0.631-3.37c0.758-1.103,2.264-1.387,3.37-0.631c0.297,0.204,7.267,5.114,7.115,17.162
			c-0.073,5.912-1.768,8.524-3.263,10.827c-1.36,2.096-2.535,3.906-2.801,8.691c-0.535,9.629,5.33,14.971,5.389,15.024
			c1,0.89,1.089,2.423,0.198,3.422C114.229,56.087,113.563,56.362,112.896,56.362z"/>
	</g>
	<g>
		<path fill="#730484" d="M249.676,88.482c-0.698,0-1.391-0.299-1.87-0.881c-0.852-1.032-0.707-2.56,0.326-3.413l18.033-14.898
			H64.573L44.666,87.833c-0.981,0.911-2.512,0.857-3.427-0.122c-0.913-0.98-0.858-2.514,0.122-3.427l20.606-19.191
			c0.449-0.418,1.039-0.65,1.652-0.65h209.287c1.023,0,1.935,0.642,2.281,1.604c0.346,0.962,0.051,2.038-0.737,2.689l-23.231,19.191
			C250.767,88.3,250.219,88.482,249.676,88.482z"/>
	</g>
	<g>
		<path fill="#730484" d="M220.585,79.768H51.068c-0.67,0-1.212-0.542-1.212-1.212c0-0.67,0.542-1.212,1.212-1.212h169.516
			c0.67,0,1.212,0.542,1.212,1.212C221.797,79.226,221.255,79.768,220.585,79.768z"/>
	</g>
	<g>
		<path fill="#730484" d="M286.151,242.156c-0.659,0-1.2-0.528-1.212-1.19c-0.009-0.509-0.958-51.234-4.351-88.335
			c-3.39-37.056-10.405-65.997-10.476-66.286c-0.159-0.65,0.239-1.306,0.89-1.465c0.637-0.162,1.304,0.238,1.465,0.89
			c0.071,0.289,7.128,29.407,10.535,66.641c3.401,37.189,4.351,88.002,4.361,88.51c0.012,0.67-0.521,1.223-1.19,1.235
			C286.165,242.156,286.158,242.156,286.151,242.156z"/>
	</g>
	<g>
		<path fill="#730484" d="M265.664,73.786H118.769c-0.67,0-1.212-0.542-1.212-1.212c0-0.67,0.542-1.212,1.212-1.212h146.895
			c0.67,0,1.212,0.542,1.212,1.212C266.876,73.244,266.334,73.786,265.664,73.786z"/>
	</g>
	<g>
		<path fill="#730484" d="M278.861,357.204c-0.663,0-1.205-0.534-1.212-1.198c-0.008-0.705-0.829-71.009-2.622-113.328
			c-0.028-0.669,0.491-1.233,1.16-1.262c0.638-0.026,1.235,0.49,1.262,1.16c1.794,42.356,2.616,112.696,2.624,113.401
			c0.007,0.67-0.529,1.218-1.198,1.226C278.87,357.204,278.866,357.204,278.861,357.204z"/>
	</g>
	<g>
		<path fill="#730484" d="M286.269,350.925c-0.002,0-0.005,0-0.007,0c-0.67-0.005-1.21-0.55-1.205-1.219
			c0.002-0.393,0.227-39.684-1.566-81.99c-0.028-0.669,0.491-1.233,1.16-1.262c0.614-0.052,1.233,0.491,1.262,1.16
			c1.797,42.366,1.571,81.714,1.568,82.106C287.477,350.387,286.936,350.925,286.269,350.925z"/>
	</g>
	<g>
		<path fill="#730484" d="M276.237,212.722c-0.651,0-1.188-0.517-1.21-1.172c-0.009-0.276-0.917-27.75-1.715-46.046
			c-0.795-18.206-8.754-56.792-8.835-57.179c-0.135-0.656,0.285-1.297,0.941-1.433c0.645-0.134,1.295,0.285,1.433,0.941
			c0.08,0.389,8.079,39.167,8.882,57.565c0.798,18.31,1.707,45.798,1.715,46.072c0.022,0.67-0.502,1.23-1.171,1.251
			C276.264,212.722,276.251,212.722,276.237,212.722z"/>
	</g>
	<g>
		<path d="M109.697,262.822c-13.068,0-17.146-14.908-17.313-15.544c-0.342-1.295,0.431-2.621,1.726-2.962
			c1.3-0.34,2.617,0.43,2.96,1.721c0.135,0.501,3.439,12.006,12.695,11.936c11.221-0.063,16.626-12.16,16.679-12.283
			c0.535-1.227,1.959-1.792,3.191-1.252c1.226,0.535,1.787,1.964,1.252,3.191c-0.269,0.617-6.754,15.112-21.097,15.193
			C109.761,262.822,109.729,262.822,109.697,262.822z"/>
	</g>
	<g>
		<path d="M196.667,260.919c-13.065,0-17.144-14.907-17.311-15.543c-0.342-1.295,0.431-2.621,1.726-2.962
			c1.296-0.346,2.618,0.431,2.96,1.721c0.135,0.5,3.314,11.935,12.631,11.935c0.021,0,0.041,0,0.064,0
			c11.157-0.062,16.627-12.163,16.68-12.287c0.541-1.222,1.967-1.786,3.194-1.243c1.224,0.536,1.784,1.96,1.249,3.186
			c-0.269,0.617-6.754,15.112-21.097,15.191C196.731,260.919,196.699,260.919,196.667,260.919z"/>
	</g>
	<g>
		<path d="M59.23,330.741c-0.001,0-0.001,0-0.002,0c-0.695,0-17.109-0.115-25.362-8.901c-3.368-3.584-4.91-8.059-4.586-13.3
			c1.323-21.416,31.312-32.589,40.471-35.503c8.876-2.823,22.241-5.976,22.806-6.11c1.298-0.307,2.609,0.502,2.915,1.805
			c0.307,1.303-0.502,2.608-1.805,2.915c-0.136,0.032-13.75,3.243-22.446,6.011c-5.992,1.906-35.939,12.368-37.102,31.181
			c-0.241,3.909,0.831,7.075,3.28,9.683c6.835,7.276,21.684,7.372,21.833,7.372c1.339,0.001,2.423,1.088,2.422,2.427
			C61.653,329.656,60.567,330.741,59.23,330.741z"/>
	</g>
	<g>
		<path d="M270.521,335.939c-1.132,0-2.142-0.795-2.373-1.947c-0.264-1.313,0.587-2.59,1.899-2.854
			c0.244-0.049,24.377-5.079,25.085-19.947c0.747-15.687-19.476-31.003-39.459-36.747c-13.488-3.878-43.269-6.353-43.568-6.378
			c-1.335-0.109-2.328-1.28-2.218-2.614c0.11-1.335,1.306-2.35,2.614-2.218c1.242,0.102,30.565,2.54,44.512,6.551
			c21.493,6.179,43.855,22.871,42.963,41.636c-0.889,18.647-27.83,24.243-28.977,24.471
			C270.838,335.924,270.678,335.939,270.521,335.939z"/>
	</g>
	<g>
		<path d="M137.933,286.679c-0.207,0-0.418-0.011-0.631-0.033c-2.481-0.262-4.359-1.883-6.018-3.315
			c-1.697-1.465-3.163-2.732-5.041-2.732c-2.985,0-5.785,3.53-6.611,4.89c-0.695,1.14-2.185,1.506-3.326,0.819
			c-1.143-0.691-1.515-2.174-0.827-3.32c0.178-0.295,4.415-7.237,10.764-7.237c3.681,0,6.193,2.168,8.21,3.911
			c1.227,1.059,2.386,2.061,3.357,2.163c0.928,0.07,2.526-1.132,3.945-2.213c2.288-1.746,4.882-3.724,8.229-3.858
			c3.649-0.176,6.219,2.077,8.28,3.865c1.314,1.138,2.553,2.212,3.534,2.212c0.945,0,2.082-0.94,3.4-2.028
			c2.19-1.807,4.915-4.056,9.125-4.056c7.52,0,14.667,6.444,14.968,6.717c0.987,0.902,1.057,2.432,0.157,3.421
			c-0.9,0.991-2.434,1.063-3.423,0.163c-0.06-0.054-6.075-5.453-11.702-5.453c-2.468,0-4.202,1.432-6.038,2.947
			c-1.781,1.47-3.8,3.137-6.487,3.137c-2.79,0-4.872-1.805-6.709-3.397c-1.703-1.477-3.134-2.733-4.911-2.685
			c-1.818,0.073-3.68,1.494-5.482,2.869C142.623,285.047,140.484,286.679,137.933,286.679z"/>
	</g>
	<g>
		<g>
			<path fill="#666666" d="M31.663,347.924c-0.792,15.873-1.912,22.682-1.912,22.682c-18.555,10.597-29.535-6.123-26.946-23.645
				c2.316-15.674,10.41-27.878,18.694-27.878S32.382,333.515,31.663,347.924z"/>
		</g>
		<g>
			<path fill="#730484" d="M18.813,376.341c-4.994,0-9.413-2.061-12.777-5.959c-4.887-5.664-6.992-14.551-5.63-23.775
				c2.522-17.073,11.589-29.948,21.092-29.948c2.533,0,4.854,1.032,6.711,2.985c6.252,6.571,6.191,22.051,5.873,28.401
				c-0.791,15.828-1.895,22.671-1.941,22.954c-0.118,0.721-0.556,1.349-1.19,1.712C26.736,375.119,22.652,376.341,18.813,376.341z
				 M21.499,321.507c-6.883,0-14.194,11.578-16.296,25.808c-1.142,7.733,0.584,15.357,4.504,19.899
				c4.284,4.967,10.584,5.617,17.816,1.848c0.336-2.534,1.123-9.336,1.72-21.258c0.585-11.747-1.156-21.257-4.544-24.818
				C23.738,321.977,22.722,321.507,21.499,321.507z"/>
		</g>
	</g>
	<g>
		<path fill="#730484" d="M29.752,373.031c-0.93,0-1.818-0.539-2.218-1.445c-0.541-1.224,0.012-2.655,1.237-3.197
			c0.831-0.368,20.486-9.046,30.219-11.934c9.4-2.789,36.119-7.959,37.252-8.178c1.316-0.258,2.585,0.606,2.84,1.921
			c0.253,1.314-0.606,2.585-1.921,2.84c-0.275,0.053-27.618,5.344-36.791,8.064c-9.435,2.801-29.437,11.632-29.638,11.721
			C30.412,372.964,30.079,373.031,29.752,373.031z"/>
	</g>
	<g>
		<path fill="#730484" d="M22.106,366.051c-0.101,0-0.202-0.012-0.304-0.039c-0.647-0.167-1.038-0.827-0.871-1.476
			c0.025-0.092,2.396-9.375,2.691-18.078c0.292-8.63-2.638-17.674-2.668-17.763c-0.208-0.636,0.137-1.321,0.774-1.529
			c0.634-0.208,1.321,0.137,1.529,0.774c0.127,0.386,3.094,9.545,2.786,18.602c-0.303,8.976-2.664,18.212-2.764,18.602
			C23.137,365.689,22.646,366.051,22.106,366.051z"/>
	</g>
	<g>
		<g>
			<path fill="#666666" d="M182.828,370.305c-0.728,15.873-1.757,22.682-1.757,22.682c-17.049,10.597-27.137-6.123-24.758-23.645
				c2.128-15.674,9.565-27.878,17.176-27.878C181.101,341.464,183.489,355.896,182.828,370.305z"/>
		</g>
		<g>
			<path fill="#730484" d="M171.022,398.722c-4.389,0-8.325-1.849-11.381-5.348c-4.824-5.524-7.019-14.858-5.729-24.358
				c2.358-17.369,10.592-29.976,19.578-29.976c2.27,0,4.363,0.935,6.052,2.702c6.049,6.333,6.007,22.162,5.709,28.674
				c-0.726,15.818-1.74,22.65-1.783,22.933c-0.107,0.702-0.515,1.322-1.117,1.696C178.427,397.485,174.615,398.722,171.022,398.722z
				 M173.49,343.889c-5.422,0-12.612,9.857-14.775,25.781c-1.107,8.153,0.647,16.014,4.577,20.514
				c3.854,4.412,9.279,4.858,15.529,1.32c0.308-2.511,1.037-9.326,1.586-21.31c0.554-12.081-1.121-21.699-4.371-25.101
				C175.252,344.271,174.442,343.889,173.49,343.889z"/>
		</g>
	</g>
	<g>
		<path fill="#730484" d="M173.262,388.433c-0.101,0-0.202-0.012-0.304-0.039c-0.647-0.167-1.038-0.827-0.871-1.476
			c0.025-0.092,2.396-9.375,2.691-18.078c0.292-8.631-2.638-17.675-2.668-17.765c-0.208-0.636,0.137-1.321,0.774-1.529
			c0.64-0.21,1.321,0.137,1.529,0.774c0.127,0.386,3.094,9.545,2.786,18.603c-0.303,8.976-2.664,18.212-2.764,18.602
			C174.293,388.071,173.802,388.433,173.262,388.433z"/>
	</g>
	<g>
		<path fill="#730484" d="M181.07,395.411c-0.517,0-1.037-0.165-1.478-0.503c-1.061-0.818-1.258-2.34-0.442-3.401l26.188-34.002
			c0.819-1.059,2.339-1.256,3.401-0.441c1.061,0.818,1.258,2.34,0.442,3.401l-26.188,34.002
			C182.514,395.086,181.795,395.411,181.07,395.411z"/>
	</g>
	<g opacity="0.2">
		<path fill="#999999" d="M87.456,122.219c0,0,4.37,19.494,5.656,31.716c1.287,12.223,1.616,37.373,1.616,37.373h125.855
			c0,0,0.778-24.46-1.646-39.813s-6.637-29.276-6.637-29.276H87.456z"/>
	</g>
</g>
</svg>
